NOTES: this is missing few seconds off the what happened last week preview but none of the actual show sorry about that W33D TEAM


Season 5 Episode 5
The chaos continues as the gang return from Prague to a turbulent Toon. Holly and Kate come face to face on a night out, while Dan gets in a pickle with Scott.


General
Complete name : Geordie.Shore.S05E05.PDTV.x264-W33D.mp4
Format : MPEG-4
Format profile : Base Media
Codec ID : isom
File size : 271 MiB
Duration : 43mn 39s
Overall bit rate mode : Variable
Overall bit rate : 867 Kbps
Part/Position : 5
Track name/Position : 5
Encoded date : UTC 2013-03-19 23:46:50
Tagged date : UTC 2013-03-19 23:47:46
tvsh : Geordie Shore
tvsn : 5
tves : 5
sosn : Geordie Shore
hdvd : 0
stik : 10

Video
ID : 1
Format : AVC
Format/Info : Advanced Video Codec
Format profile : High@L3.1
Format settings, CABAC : Yes
Format settings, ReFrames : 4 frames
Codec ID : avc1
Codec ID/Info : Advanced Video Coding
Duration : 43mn 39s
Bit rate : 721 Kbps
Maximum bit rate : 2 452 Kbps
Width : 704 pixels
Height : 384 pixels
Display aspect ratio : 1.85:1
Frame rate mode : Constant
Frame rate : 25.000 fps
Color space : YUV
Chroma subsampling : 4:2:0
Bit depth : 8 bits
Scan type : Progressive
Bits/(Pixel*Frame) : 0.107
Stream size : 225 MiB (83%)
Writing library : x264 core 129 r2245 bc13772
Encoding settings : cabac=1 / ref=3 / deblock=1:0:0 / analyse=0x3:0x113 / me=hex / subme=7 / psy=1 / psy_rd=1.00:0.00 / mixed_ref=1 / me_range=16 / chroma_me=1 / trellis=1 / 8x8dct=1 / cqm=0 / deadzone=21,11 / fast_pskip=1 / chroma_qp_offset=-2 / threads=3 / lookahead_threads=1 / sliced_threads=0 / nr=0 / decimate=1 / interlaced=0 / bluray_compat=0 / constrained_intra=0 / bframes=3 / b_pyramid=2 / b_adapt=1 / b_bias=0 / direct=1 / weightb=1 / open_gop=0 / weightp=2 / keyint=250 / keyint_min=25 / scenecut=40 / intra_refresh=0 / rc_lookahead=40 / rc=crf / mbtree=1 / crf=22.5 / qcomp=0.60 / qpmin=0 / qpmax=69 / qpstep=5 / ip_ratio=1.40 / aq=1:1.00
Language : English
Encoded date : UTC 2013-03-19 23:46:50
Tagged date : UTC 2013-03-19 23:47:17

Audio
ID : 2
Format : AAC
Format/Info : Advanced Audio Codec
Format profile : LC
Codec ID : 40
Duration : 43mn 39s
Bit rate mode : Variable
Bit rate : 138 Kbps
Maximum bit rate : 154 Kbps
Channel(s) : 2 channels
Channel positions : Front: L R
Sampling rate : 48.0 KHz
Compression mode : Lossy
Stream size : 43.1 MiB (16%)
Language : English
Encoded date : UTC 2013-03-19 23:47:08
Tagged date : UTC 2013-03-19 23:47:17